<mxfile host="app.diagrams.net" modified="2021-08-25T13:45:32.881Z" agent="5.0 (Macintosh; Intel Mac OS X 10_16_0) AppleWebKit/537.36 (KHTML, like Gecko) Chrome/81.0.4044.138 Safari/537.36" etag="RVV9npGHV9Xj0mFHy5Oo" version="14.9.3" type="github">
  <diagram id="Wvz9GBNgI8FM-CAZ9Jkj" name="Page-1">
    <mxGraphModel dx="2092" dy="841" grid="1" gridSize="10" guides="1" tooltips="1" connect="1" arrows="1" fold="1" page="1" pageScale="1" pageWidth="827" pageHeight="1169" math="0" shadow="0">
      <root>
        <mxCell id="0" />
        <mxCell id="1" parent="0" />
        <mxCell id="AIT565lb91MDrdjl6Oma-1" value="管控服务" style="shape=umlLifeline;perimeter=lifelinePerimeter;container=1;collapsible=0;recursiveResize=0;rounded=0;shadow=0;strokeWidth=1;fillColor=#d5e8d4;strokeColor=#82b366;" vertex="1" parent="1">
          <mxGeometry x="110" y="80" width="120" height="840" as="geometry" />
        </mxCell>
        <mxCell id="AIT565lb91MDrdjl6Oma-2" value="" style="points=[];perimeter=orthogonalPerimeter;rounded=0;shadow=0;strokeWidth=1;" vertex="1" parent="AIT565lb91MDrdjl6Oma-1">
          <mxGeometry x="54" y="80" width="10" height="700" as="geometry" />
        </mxCell>
        <mxCell id="AIT565lb91MDrdjl6Oma-3" value="管理员" style="shape=umlActor;verticalLabelPosition=bottom;verticalAlign=top;html=1;outlineConnect=0;" vertex="1" parent="1">
          <mxGeometry x="-357" y="80" width="30" height="60" as="geometry" />
        </mxCell>
        <mxCell id="AIT565lb91MDrdjl6Oma-4" value="" style="endArrow=none;dashed=1;html=1;" edge="1" parent="1">
          <mxGeometry width="50" height="50" relative="1" as="geometry">
            <mxPoint x="-342" y="920" as="sourcePoint" />
            <mxPoint x="-342.5" y="160" as="targetPoint" />
          </mxGeometry>
        </mxCell>
        <mxCell id="AIT565lb91MDrdjl6Oma-5" value="轻空间服务" style="shape=umlLifeline;perimeter=lifelinePerimeter;container=1;collapsible=0;recursiveResize=0;rounded=0;shadow=0;strokeWidth=1;fillColor=#d5e8d4;strokeColor=#82b366;" vertex="1" parent="1">
          <mxGeometry x="298" y="80" width="110" height="840" as="geometry" />
        </mxCell>
        <mxCell id="AIT565lb91MDrdjl6Oma-6" value="" style="points=[];perimeter=orthogonalPerimeter;rounded=0;shadow=0;strokeWidth=1;" vertex="1" parent="AIT565lb91MDrdjl6Oma-5">
          <mxGeometry x="49" y="80" width="10" height="700" as="geometry" />
        </mxCell>
        <mxCell id="AIT565lb91MDrdjl6Oma-7" value="DB" style="shape=umlLifeline;perimeter=lifelinePerimeter;container=1;collapsible=0;recursiveResize=0;rounded=0;shadow=0;strokeWidth=1;fillColor=#d5e8d4;strokeColor=#82b366;" vertex="1" parent="1">
          <mxGeometry x="470" y="80" width="100" height="840" as="geometry" />
        </mxCell>
        <mxCell id="AIT565lb91MDrdjl6Oma-8" value="" style="points=[];perimeter=orthogonalPerimeter;rounded=0;shadow=0;strokeWidth=1;" vertex="1" parent="AIT565lb91MDrdjl6Oma-7">
          <mxGeometry x="45" y="80" width="10" height="690" as="geometry" />
        </mxCell>
        <mxCell id="AIT565lb91MDrdjl6Oma-9" value="配置sso_url+key" style="verticalAlign=bottom;endArrow=block;shadow=0;strokeWidth=1;dashed=1;" edge="1" parent="1">
          <mxGeometry x="-0.6" relative="1" as="geometry">
            <mxPoint x="-330" y="349" as="sourcePoint" />
            <mxPoint x="-30" y="349" as="targetPoint" />
            <mxPoint as="offset" />
          </mxGeometry>
        </mxCell>
        <mxCell id="AIT565lb91MDrdjl6Oma-12" value="登录" style="verticalAlign=bottom;endArrow=block;shadow=0;strokeWidth=1;entryX=-0.3;entryY=0.349;entryDx=0;entryDy=0;entryPerimeter=0;dashed=1;" edge="1" parent="1">
          <mxGeometry relative="1" as="geometry">
            <mxPoint x="-460" y="458" as="sourcePoint" />
            <mxPoint x="-218" y="457.8299999999999" as="targetPoint" />
          </mxGeometry>
        </mxCell>
        <mxCell id="AIT565lb91MDrdjl6Oma-13" value="管控前端" style="shape=umlLifeline;perimeter=lifelinePerimeter;container=1;collapsible=0;recursiveResize=0;rounded=0;shadow=0;strokeWidth=1;" vertex="1" parent="1">
          <mxGeometry x="-77" y="80" width="100" height="830" as="geometry" />
        </mxCell>
        <mxCell id="AIT565lb91MDrdjl6Oma-14" value="" style="points=[];perimeter=orthogonalPerimeter;rounded=0;shadow=0;strokeWidth=1;" vertex="1" parent="AIT565lb91MDrdjl6Oma-13">
          <mxGeometry x="45" y="80" width="10" height="710" as="geometry" />
        </mxCell>
        <mxCell id="AIT565lb91MDrdjl6Oma-15" value="配置接口（setConfig）" style="verticalAlign=bottom;endArrow=block;shadow=0;strokeWidth=1;" edge="1" parent="1">
          <mxGeometry relative="1" as="geometry">
            <mxPoint x="-21" y="369.0000000000007" as="sourcePoint" />
            <mxPoint x="160" y="369" as="targetPoint" />
          </mxGeometry>
        </mxCell>
        <mxCell id="AIT565lb91MDrdjl6Oma-18" value="获取sso url" style="verticalAlign=bottom;endArrow=block;shadow=0;strokeWidth=1;" edge="1" parent="1">
          <mxGeometry x="-0.567" y="10" relative="1" as="geometry">
            <mxPoint x="-210" y="489.0000000000007" as="sourcePoint" />
            <mxPoint x="169.5" y="489.0000000000007" as="targetPoint" />
            <mxPoint as="offset" />
          </mxGeometry>
        </mxCell>
        <mxCell id="AIT565lb91MDrdjl6Oma-20" value="IDaaS" style="shape=umlLifeline;perimeter=lifelinePerimeter;container=1;collapsible=0;recursiveResize=0;rounded=0;shadow=0;strokeWidth=1;fillColor=#dae8fc;strokeColor=#6c8ebf;" vertex="1" parent="1">
          <mxGeometry x="630" y="80" width="100" height="840" as="geometry" />
        </mxCell>
        <mxCell id="AIT565lb91MDrdjl6Oma-21" value="" style="points=[];perimeter=orthogonalPerimeter;rounded=0;shadow=0;strokeWidth=1;" vertex="1" parent="AIT565lb91MDrdjl6Oma-20">
          <mxGeometry x="45" y="90" width="10" height="680" as="geometry" />
        </mxCell>
        <mxCell id="AIT565lb91MDrdjl6Oma-24" value="写入DB" style="verticalAlign=bottom;endArrow=block;shadow=0;strokeWidth=1;" edge="1" parent="1">
          <mxGeometry x="-0.4706" y="10" relative="1" as="geometry">
            <mxPoint x="170" y="389.0000000000007" as="sourcePoint" />
            <mxPoint x="510" y="389" as="targetPoint" />
            <mxPoint as="offset" />
          </mxGeometry>
        </mxCell>
        <mxCell id="AIT565lb91MDrdjl6Oma-27" value="企业员工" style="shape=umlActor;verticalLabelPosition=bottom;verticalAlign=top;html=1;outlineConnect=0;" vertex="1" parent="1">
          <mxGeometry x="-480" y="80" width="30" height="60" as="geometry" />
        </mxCell>
        <mxCell id="AIT565lb91MDrdjl6Oma-28" value="" style="endArrow=none;dashed=1;html=1;" edge="1" parent="1">
          <mxGeometry width="50" height="50" relative="1" as="geometry">
            <mxPoint x="-465" y="920" as="sourcePoint" />
            <mxPoint x="-465.5" y="160" as="targetPoint" />
          </mxGeometry>
        </mxCell>
        <mxCell id="AIT565lb91MDrdjl6Oma-29" value="配置应用&#xa;（重定向redirect_ur+keyl）" style="verticalAlign=bottom;endArrow=block;shadow=0;strokeWidth=1;dashed=1;" edge="1" parent="1">
          <mxGeometry x="-0.606" y="9" relative="1" as="geometry">
            <mxPoint x="-327" y="279" as="sourcePoint" />
            <mxPoint x="673" y="279" as="targetPoint" />
            <mxPoint as="offset" />
          </mxGeometry>
        </mxCell>
        <mxCell id="AIT565lb91MDrdjl6Oma-32" value="无影前端" style="shape=umlLifeline;perimeter=lifelinePerimeter;container=1;collapsible=0;recursiveResize=0;rounded=0;shadow=0;strokeWidth=1;" vertex="1" parent="1">
          <mxGeometry x="-260" y="85" width="100" height="830" as="geometry" />
        </mxCell>
        <mxCell id="AIT565lb91MDrdjl6Oma-33" value="" style="points=[];perimeter=orthogonalPerimeter;rounded=0;shadow=0;strokeWidth=1;" vertex="1" parent="AIT565lb91MDrdjl6Oma-32">
          <mxGeometry x="45" y="80" width="10" height="710" as="geometry" />
        </mxCell>
        <mxCell id="AIT565lb91MDrdjl6Oma-34" value="获取sso url" style="verticalAlign=bottom;endArrow=block;shadow=0;strokeWidth=1;" edge="1" parent="1">
          <mxGeometry x="-0.567" y="10" relative="1" as="geometry">
            <mxPoint x="168.25" y="519.0000000000007" as="sourcePoint" />
            <mxPoint x="510" y="519" as="targetPoint" />
            <mxPoint as="offset" />
          </mxGeometry>
        </mxCell>
        <mxCell id="AIT565lb91MDrdjl6Oma-35" value="" style="endArrow=classic;html=1;entryX=0.57;entryY=0.205;entryDx=0;entryDy=0;entryPerimeter=0;dashed=1;" edge="1" parent="1">
          <mxGeometry width="50" height="50" relative="1" as="geometry">
            <mxPoint x="510" y="419" as="sourcePoint" />
            <mxPoint x="-20" y="419.1500000000001" as="targetPoint" />
          </mxGeometry>
        </mxCell>
        <mxCell id="AIT565lb91MDrdjl6Oma-37" value="" style="endArrow=classic;html=1;dashed=1;" edge="1" parent="1">
          <mxGeometry width="50" height="50" relative="1" as="geometry">
            <mxPoint x="520" y="553.5" as="sourcePoint" />
            <mxPoint x="-200" y="554" as="targetPoint" />
          </mxGeometry>
        </mxCell>
        <mxCell id="AIT565lb91MDrdjl6Oma-38" value="登录请求：sso url" style="verticalAlign=bottom;endArrow=block;shadow=0;strokeWidth=1;" edge="1" parent="1">
          <mxGeometry relative="1" as="geometry">
            <mxPoint x="-200" y="619" as="sourcePoint" />
            <mxPoint x="670" y="619" as="targetPoint" />
          </mxGeometry>
        </mxCell>
        <mxCell id="AIT565lb91MDrdjl6Oma-39" value="" style="endArrow=classic;html=1;dashed=1;entryX=1;entryY=0.652;entryDx=0;entryDy=0;entryPerimeter=0;" edge="1" parent="1">
          <mxGeometry width="50" height="50" relative="1" as="geometry">
            <mxPoint x="670" y="662" as="sourcePoint" />
            <mxPoint x="-205" y="663.8400000000001" as="targetPoint" />
            <Array as="points">
              <mxPoint x="120" y="664" />
            </Array>
          </mxGeometry>
        </mxCell>
        <mxCell id="AIT565lb91MDrdjl6Oma-41" value="重定向redirect_url（id_token）" style="text;html=1;strokeColor=none;fillColor=none;align=center;verticalAlign=middle;whiteSpace=wrap;rounded=0;" vertex="1" parent="1">
          <mxGeometry x="23" y="585" width="110" height="5" as="geometry" />
        </mxCell>
        <mxCell id="AIT565lb91MDrdjl6Oma-43" value="重定向(id_token)" style="verticalAlign=bottom;endArrow=block;shadow=0;strokeWidth=1;entryX=-0.4;entryY=0.737;entryDx=0;entryDy=0;entryPerimeter=0;" edge="1" parent="1">
          <mxGeometry x="-0.35" y="10" relative="1" as="geometry">
            <mxPoint x="-207" y="713.0000000000007" as="sourcePoint" />
            <mxPoint x="343" y="712.79" as="targetPoint" />
            <mxPoint as="offset" />
          </mxGeometry>
        </mxCell>
        <mxCell id="AIT565lb91MDrdjl6Oma-50" value="" style="endArrow=classic;html=1;dashed=1;" edge="1" parent="1">
          <mxGeometry width="50" height="50" relative="1" as="geometry">
            <mxPoint x="352.5" y="849" as="sourcePoint" />
            <mxPoint x="-210" y="849" as="targetPoint" />
            <Array as="points">
              <mxPoint x="10" y="849" />
            </Array>
          </mxGeometry>
        </mxCell>
        <mxCell id="AIT565lb91MDrdjl6Oma-51" value="登录返回" style="text;html=1;strokeColor=none;fillColor=none;align=center;verticalAlign=middle;whiteSpace=wrap;rounded=0;" vertex="1" parent="1">
          <mxGeometry x="-150" y="820" width="70" height="20" as="geometry" />
        </mxCell>
        <mxCell id="AIT565lb91MDrdjl6Oma-52" value="获取key" style="verticalAlign=bottom;endArrow=block;shadow=0;strokeWidth=1;" edge="1" parent="1">
          <mxGeometry relative="1" as="geometry">
            <mxPoint x="350" y="729.0000000000007" as="sourcePoint" />
            <mxPoint x="510" y="729" as="targetPoint" />
          </mxGeometry>
        </mxCell>
        <mxCell id="AIT565lb91MDrdjl6Oma-53" value="" style="endArrow=classic;html=1;dashed=1;" edge="1" parent="1">
          <mxGeometry width="50" height="50" relative="1" as="geometry">
            <mxPoint x="510" y="779" as="sourcePoint" />
            <mxPoint x="360" y="780" as="targetPoint" />
          </mxGeometry>
        </mxCell>
        <mxCell id="AIT565lb91MDrdjl6Oma-56" value="解析token" style="shape=note;whiteSpace=wrap;html=1;backgroundOutline=1;darkOpacity=0.05;" vertex="1" parent="1">
          <mxGeometry x="360" y="800" width="110" height="40" as="geometry" />
        </mxCell>
        <mxCell id="AIT565lb91MDrdjl6Oma-58" value="IDaaS授权" style="verticalAlign=bottom;endArrow=block;shadow=0;strokeWidth=1;dashed=1;" edge="1" parent="1">
          <mxGeometry x="-0.886" y="10" relative="1" as="geometry">
            <mxPoint x="-327" y="190" as="sourcePoint" />
            <mxPoint x="673" y="190" as="targetPoint" />
            <mxPoint as="offset" />
          </mxGeometry>
        </mxCell>
        <mxCell id="AIT565lb91MDrdjl6Oma-59" value="" style="endArrow=classic;html=1;" edge="1" parent="1">
          <mxGeometry width="50" height="50" relative="1" as="geometry">
            <mxPoint x="670" y="220" as="sourcePoint" />
            <mxPoint x="180" y="220" as="targetPoint" />
          </mxGeometry>
        </mxCell>
        <mxCell id="AIT565lb91MDrdjl6Oma-63" value="用户数据推送scim" style="text;html=1;strokeColor=none;fillColor=none;align=center;verticalAlign=middle;whiteSpace=wrap;rounded=0;" vertex="1" parent="1">
          <mxGeometry x="380" y="200" width="150" height="20" as="geometry" />
        </mxCell>
        <mxCell id="AIT565lb91MDrdjl6Oma-65" value="用户数据保存" style="verticalAlign=bottom;endArrow=block;shadow=0;strokeWidth=1;" edge="1" parent="1">
          <mxGeometry relative="1" as="geometry">
            <mxPoint x="180" y="252.00000000000068" as="sourcePoint" />
            <mxPoint x="519.5" y="252.00000000000068" as="targetPoint" />
          </mxGeometry>
        </mxCell>
      </root>
    </mxGraphModel>
  </diagram>
</mxfile>
